<svg xmlns="http://www.w3.org/2000/svg" width="400" height="400"><path d="M216.7 16.6a9.8 9.8 0 00-2.3 2.7c0 .3-.4.8-.8 1.1-.4.3-.8.9-.8 1.3s-.2.7-.4.7-.4.4-.4.8-.2.8-.4.8-.4.3-.4.8c0 .4-.1.8-.3.9-.4.1-2.5 4.6-2.5 5.3 0 .3-.2.7-.4.8-.2.1-.4.7-.4 1.2 0 .6-.2 1-.4 1s-.4.5-.4 1.2-.2 1.2-.4 1.2-.4.4-.4.8-.2.8-.4.8-.4.5-.4 1.2-.2 1.2-.4 1.2-.4.3-.4.8c0 .4-.2.9-.4 1-.2.1-.4.7-.4 1.2 0 .6-.2 1-.4 1s-.4.6-.4 1.4c0 .8-.2 1.4-.4 1.4s-.4.5-.4 1.2-.2 1.2-.4 1.2-.4.5-.4 1.2-.2 1.2-.4 1.2-.4.5-.4 1.2-.2 1.2-.4 1.2-.4.5-.4 1.2-.2 1.2-.4 1.2c-.3 0-.5 1-1 4.5-.2.8-.4 1.5-.6 1.5-.2 0-.4.5-.4 1.2 0 .6-.2 1.3-.4 1.4-.2.1-.4.9-.4 1.6 0 .8-.2 1.4-.4 1.4s-.4.6-.5 1.3l-1 4.5c-.6 1.3-1.3 4.5-1.3 5.5a37.4 37.4 0 00-1.9 8.8c0 1-.4 1.9-.6 1.9-.1 0-.3.6-.3 1.4 0 .8-.2 1.4-.4 1.4s-.4.7-.4 1.6c0 .8-.2 1.7-.4 1.8-.2.1-.4 1-.4 2s-.2 1.8-.4 1.8-.4.9-.4 2-.2 2-.4 2-.4.7-.4 1.6c0 .9-.2 1.6-.4 1.6s-.4.8-.4 1.8-.2 1.8-.4 1.8-.4.7-.4 1.6c0 .8-.2 1.7-.4 1.8-.2.1-.4 1-.4 2s-.2 1.9-.4 2c-.2.1-.4 1.2-.4 2.4s-.2 2.2-.4 2.2-.4.9-.4 2-.2 2-.4 2-.4.8-.4 1.8-.2 1.9-.4 2c-.2.1-.4 1-.4 2s-.2 1.8-.4 1.8-.4.9-.4 2c0 1-.2 2-.4 2.2-.3.4-.7 2.4-1 6.8a8 8 0 01-.6 2.8c-.2.2-.4 1.2-.4 2.3 0 1-.2 2-.4 2.1-.2.1-.4 1.2-.4 2.4s-.2 2.2-.4 2.2-.4.8-.4 1.7c0 .9-.2 2.2-.4 2.9-.6 2-1.6 9.8-1.6 12.3 0 1.2-.2 2.4-.4 2.5-.2.1-.4 1.2-.4 2.4s-.2 2.2-.4 2.2-.4 1.2-.4 2.8c0 1.6-.2 2.8-.4 2.8s-.4 1-.4 2.4c0 1.3-.2 2.4-.4 2.4s-.4 1.1-.4 2.6-.2 2.6-.4 2.6-.4 1.1-.4 2.6-.2 2.6-.4 2.6-.4 1.5-.4 3.8-.2 3.8-.4 3.8-.4 1.2-.4 2.8c0 1.5-.2 2.9-.4 3-.2.1-.4 1.5-.4 3 0 1.6-.2 2.8-.4 2.8s-.4 1.3-.4 3c0 1.6-.2 3-.4 3.2-.2.1-.4 1.6-.4 3.1 0 1.6-.2 3.1-.4 3.3-.4.4-.7 4-1 11.5-.2 2.6-.4 4.7-.6 4.7-.3 0-.5 1.5-1 11.4-.2 2.2-.4 4.2-.6 4.4-.2.2-.4 2.2-.4 4.4s-.2 4.2-.4 4.4c-.2.2-.4 2.4-.6 4.8 0 2.4-.4 7.2-.6 10.6a563.4 563.4 0 000 75l.6 5.2c.2 1.1.4 2.2.6 2.4.2.2.4 1 .4 1.7s.2 1.3.4 1.3.4.5.4 1.2.2 1.2.4 1.2.4.5.4 1.2.2 1.2.4 1.2.4.3.4.6c0 1.6 2.7 3.4 5 3.4s5-1.2 5-2.3c0-.3.5-1 1.2-1.7.7-.6 1.2-1.4 1.2-1.7 0-.3.4-.8.8-1.1.4-.3.8-.9.8-1.3s.2-.7.4-.7.4-.4.4-.8.2-.8.4-.8.4-.4.4-.8.2-.8.4-.8.4-.4.4-.8.2-.8.4-.8.4-.4.4-1 .2-1 .4-1 .4-.4.4-.8.2-.8.4-.8.4-.3.4-.8c0-.4.2-.9.4-1 .2-.1.4-.7.4-1.2 0-.6.2-1 .4-1s.4-.5.4-1.2.1-1.2.3-1.2c.2 0 .6-.9.9-2 .3-1.1.7-2 .9-2 .2 0 .3-.4.3-.8s.2-1.1.4-1.5c.5-1.2 1.2-3.5 1.2-4.4 0-.5.2-.9.4-.9s.4-.5.4-1.2.2-1.2.4-1.2.4-1 .6-2.4c.2-1.3.4-2.4.6-2.4.2 0 .4-.5.4-1.2s.2-1.2.4-1.2.4-.5.4-1.2c0-.6.2-1.3.4-1.4.2-.1.4-1 .4-1.8 0-.9.2-1.6.4-1.6s.4-.6.4-1.4c0-.7.2-1.5.4-1.6.2-.1.4-.8.4-1.4 0-.7.2-1.2.4-1.2s.4-.7.4-1.6c0-.9.2-1.6.4-1.6s.4-.5.4-1.2.2-1.2.4-1.2.4-.7.4-1.6c0-.9.2-1.6.4-1.6s.4-.8.4-1.8.2-1.8.4-1.8.4-.7.4-1.6c0-.9.2-1.6.4-1.6s.4-.7.4-1.6c0-.9.2-1.6.4-1.6s.4-.7.4-1.6c0-.9.2-1.6.4-1.6s.4-.7.4-1.6c0-.8.2-1.7.4-1.8.2-.1.4-1 .4-1.7 0-.9.2-1.7.4-2 .2-.1.4-1.2.6-2.3.5-4.5.7-5.4 1-5.4.2 0 .4-.8.5-1.7a47.5 47.5 0 011.5-7.5l.8-3.8.9-6.1c.2-2.3.6-4.1.8-4.1.2 0 .3-.9.3-2s.2-2 .4-2 .4-.9.4-2 .2-2 .4-2 .4-.9.4-2 .2-2 .4-2 .4-.9.4-2c0-1 .2-2 .4-2.2.2-.1.4-1.5.4-3 0-1.6.2-2.8.4-2.8s.4-.9.4-2 .2-2 .4-2 .4-1 .4-2.2c0-1.2.2-2.3.4-2.4.2-.1.4-1.2.4-2.4s.2-2.2.4-2.2.4-1 .4-2.2c0-1.2.2-2.3.4-2.4.2-.1.4-1.2.4-2.4s.2-2.3.4-2.4c.2-.1.4-1.6.4-3.2 0-1.7.2-3 .4-3s.4-1 .4-2.4c0-1.3.2-2.5.4-2.6.2-.1.4-1.4.4-2.8 0-1.5.2-2.6.4-2.6s.4-1.1.4-2.6c0-1.4.2-2.6.4-2.6s.4-1.1.5-2.5a150.7 150.7 0 011.5-12.5l1.6-12.8.9-9.3c.2-3.4.6-6.1.8-6.1.2 0 .3-1.6.3-3.6 0-2.1.2-3.6.4-3.6s.4-2 .4-5 .2-5 .4-5 .4-1.7.4-4.2.2-4.2.4-4.2.4-1.7.4-4.4.2-4.4.4-4.4.4-1.8.4-4.6c0-2.6.2-4.7.4-4.8.2-.1.4-2.5.4-5.7a713.4 713.4 0 001.2-63.4c-.2-.3-.4-2.4-.4-5 0-2.7-.2-4.5-.4-4.5s-.4-1.3-.4-3-.2-3-.4-3-.4-.9-.4-2-.2-2-.4-2-.4-.7-.4-1.6c0-.9-.2-1.6-.4-1.6s-.4-.5-.4-1.2-.2-1.2-.4-1.2-.4-.5-.4-1.2-.2-1.2-.4-1.2-.4-.3-.4-.6c0-1.6-2.6-3.4-5-3.4-2 0-2.2 0-4.3 2.2m-62.3 22.6c0 .2-.3.4-.6.4-.9 0-5.8 4.7-5.8 5.5 0 .3-.2.5-.3.5-.2 0-.8.9-1.3 1.9-.6 1-1.1 2-1.3 2-.2.1-.3.5-.3 1 0 .4-.2.7-.4.7s-.4.4-.4.8-.2.8-.4.8c-.1 0-.4.4-.5.9-.3 1.4-1.1 3.5-2 5.2-.4.9-.7 2-.7 2.3 0 .5-.2.8-.4.8s-.4.4-.4.8-.2.8-.4.8-.4.5-.4 1.2-.2 1.2-.4 1.2-.4.3-.4.8c0 .4-.2.9-.4 1-.2.1-.4.9-.4 1.6 0 .8-.2 1.4-.4 1.4s-.4.5-.4 1.2-.2 1.2-.4 1.2-.4.5-.4 1.2-.2 1.2-.4 1.2-.4.5-.4 1c0 .6-.2 1-.4 1s-.4.5-.4 1.2-.2 1.2-.4 1.2-.4.5-.4 1.2-.2 1.2-.4 1.2-.4.7-.4 1.6c0 .9-.2 1.6-.4 1.6s-.4.5-.4 1.2-.2 1.2-.4 1.2-.4.7-.4 1.6c0 .9-.2 1.6-.4 1.6s-.4.5-.4 1.2-.2 1.2-.4 1.2-.4.6-.4 1.4c0 .7-.2 1.5-.4 1.6A100.6 100.6 0 01126 108l-.8 3.2c-.2.8-.4 2-.4 2.7 0 .7-.2 1.3-.4 1.3s-.4.7-.4 1.6c0 .8-.2 1.7-.4 1.8-.2.1-.4 1.2-.4 2.4s-.2 2.2-.4 2.2-.4.8-.4 1.8-.2 1.8-.4 1.8-.4.7-.4 1.6c0 .8-.2 1.7-.4 1.8-.2.1-.4 1-.4 2s-.2 1.8-.4 1.8-.4.8-.4 1.8-.2 1.9-.4 2c-.2.1-.4 1-.4 1.8 0 .9-.2 1.7-.4 1.8-.2.1-.4 1.3-.4 2.6s-.2 2.4-.4 2.4-.4.9-.4 2c0 1-.2 2-.4 2.2-.2.1-.4 1.2-.4 2.4s-.2 2.2-.4 2.2-.4.9-.4 2-.2 2-.4 2-.4 1-.4 2.2c0 1.2-.2 2.3-.4 2.4-.2.1-.4 1.1-.4 2.1s-.2 2.1-.4 2.3c-.2.2-.4 1.7-.6 3.2-.3 5-.6 7.2-1 8-.3.8-.5 2-1 7.4-.1 1.2-.4 2.6-.6 3a14 14 0 00-.6 3.2c0 1.3-.3 3.8-.6 5.6a154 154 0 00-1.2 14.1c0 1.4-.2 2.5-.4 2.5s-.4 1.5-.4 3.6-.2 3.6-.4 3.6-.4 1.4-.4 3.4c0 1.8-.2 3.5-.4 3.6-.2.1-.4 2-.4 4 0 2.3-.2 3.8-.4 3.8s-.4 1.7-.4 4.4c0 2.5-.2 4.5-.4 4.6a37 37 0 00-.4 8 37 37 0 01-.4 8c-.2.2-.4 4-.4 10.2 0 6.2-.2 10-.4 10.2a37 37 0 00-.4 8c0 4.7.2 7.8.4 8 .2.2.4 3.3.4 8s.2 7.8.4 8c.2.1.4 2.1.4 4.6 0 2.5.2 4.5.4 4.6.2.1.4 1.2.4 2.4s.2 2.2.4 2.2.4.7.4 1.6c0 .9.2 1.6.4 1.6s.4.7.4 1.6c0 .9.2 1.6.4 1.6s.4.5.4 1.2.1 1.2.3 1.2c.2 0 .5.8.8 1.7.5 2 2.4 4.3 3.5 4.3.3 0 .6.2.6.4s.9.4 2 .4 2-.2 2-.4.3-.4.6-.4c.4 0 1-.3 1.3-.6a35 35 0 004.5-4.7l1-1.7c.5-.8 1-1.8 1-2.3 0-.4.2-.7.4-.7s.4-.3.4-.6c0-.4.4-1 .8-1.5s.8-1.2.8-1.6c0-.3.2-.8.4-.9.2-.1.4-.6.4-1 0-.5.2-.8.4-.8s.4-.3.4-.8c0-.4.2-.9.4-1 .2-.1.4-.6.4-1 0-.5.2-.8.4-.8s.4-.4.4-.8.2-.8.4-.8.4-.4.4-.8.2-1.2.5-1.7c1-2 1.1-2.3 1.1-3 0-.5.2-1 .4-1.1.2-.1.4-.7.4-1.2 0-.6.2-1 .4-1s.4-.5.4-1.2.2-1.2.4-1.2.4-.5.4-1.2.2-1.2.4-1.2.4-.4.4-1c0-.5.2-1 .4-1.2.2-.1.4-.8.4-1.4 0-.6.2-1.3.4-1.4.2-.1.4-.8.4-1.4 0-.7.2-1.2.4-1.2s.4-.5.4-1.2c0-.6.2-1.3.4-1.4.2-.1.4-.9.4-1.6 0-.8.2-1.4.4-1.4s.4-.5.4-1.2c0-.6.2-1.3.4-1.4.2-.1.5-1.3.6-2.6.2-1.3.5-2.5.7-2.6.1-.2.3-1 .3-2s.2-1.8.4-1.8.4-.7.4-1.6c0-.9.2-1.6.4-1.6s.4-.5.4-1.2.2-1.2.4-1.2.4-.7.4-1.6c0-.9.2-1.6.4-1.6s.4-.6.4-1.4c0-.7.2-1.5.4-1.6.2-.1.4-1 .4-1.8 0-.9.2-1.7.4-1.8.2-.1.4-1.1.4-2.2s.2-2 .4-2 .4-.7.4-1.6c0-.9.2-1.6.4-1.6s.4-.8.4-1.8.2-1.9.4-2c.2-.1.4-.9.4-1.6 0-.7.2-1.5.4-1.6.2-.1.4-1 .4-2s.2-1.8.4-1.8.4-.8.4-1.8.2-1.9.4-2c.2-.1.4-1.3.4-2.6s.2-2.4.4-2.4.4-.8.4-1.8.2-1.9.4-2c.2-.1.4-1 .4-2s.2-1.9.4-2c.2-.1.4-1.1.4-2.2 0-1 .2-2 .4-2.2.2-.1.4-1.1.4-2.2 0-1 .2-2 .3-2.2.2 0 .5-1.3.7-2.7l1.4-9.8c.8-4.6 1.2-8 1.2-10 0-1.2.2-2.1.4-2.1s.4-1 .4-2.4c0-1.3.2-2.4.4-2.4s.4-1.2.4-2.8c0-1.5.2-2.9.4-3 .2-.1.4-1.9.4-3.8 0-2.1.2-3.6.4-3.6s.4-1.3.4-3.2c0-1.9.2-3.2.4-3.2s.4-1.3.4-3 .2-3 .4-3 .4-1.3.4-3.2c0-1.7.2-3.3.4-3.4.2-.1.4-1.8.4-3.6s.2-3.5.4-3.6c.2-.1.4-2 .4-4s.2-3.9.4-4c.2-.1.4-2.6.4-6s.2-5.9.4-6c.2-.1.4-2.6.4-6 0-3.6.2-5.8.4-5.8.3 0 .4-2.8.4-7.7a378.7 378.7 0 00-1.2-56.7c-.2 0-.4-1.2-.4-2.8 0-1.5-.2-2.9-.4-3-.2-.1-.4-.9-.4-1.6 0-.7-.2-1.5-.4-1.6-.2-.1-.4-.8-.4-1.4 0-.6-.2-1.3-.4-1.4-.2-.1-.4-.6-.4-1 0-.5-.2-.8-.4-.8s-.4-.4-.4-.8c0-2.5-3.8-6-6.4-6-1 0-2 .2-2 .4m116.8 19.2c-2.8 2.9-3.6 3.9-3.6 4.4 0 .2-.4.8-.8 1.3s-.8 1-.8 1.4c0 .3-.2.5-.4.5s-.4.4-.4.8-.2.8-.4.8-.4.4-.4.8-.2.8-.4.8-.4.3-.4.8c0 .4-.2.9-.4 1-.2.1-.4.7-.4 1.2 0 .6-.2 1-.4 1s-.4.4-.4.8-.2.8-.4.8-.4.3-.4.8a29.2 29.2 0 00-2.8 8.3c0 .5-.2.9-.4.9s-.4.5-.4 1.2-.2 1.2-.4 1.2-.4.4-.4.8-.2.8-.4.8-.4.5-.4 1.2-.2 1.2-.4 1.2-.4.5-.4 1.2-.2 1.2-.4 1.2-.4.6-.4 1.4c0 .8-.2 1.4-.4 1.4s-.4.5-.4 1.2c0 .6-.2 1.3-.4 1.4-.2.1-.4.9-.4 1.6 0 .8-.2 1.4-.4 1.4s-.4.5-.4 1.2-.2 1.2-.4 1.2-.4.5-.4 1.2-.2 1.2-.4 1.2-.4.7-.4 1.6c0 .9-.2 1.6-.4 1.6s-.4.6-.4 1.4c0 .7-.2 1.5-.4 1.6-.2.1-.4.9-.4 1.6 0 .8-.2 1.4-.4 1.4s-.4.7-.4 1.6c0 .9-.2 1.6-.4 1.6s-.4.7-.4 1.6c0 .9-.2 1.6-.4 1.6s-.4.6-.4 1.4c0 .7-.2 1.5-.4 1.6a3398.6 3398.6 0 00-1.6 7.2c-.3.8-.6 2.1-1 5l-.5 2a65 65 0 00-1.6 8c0 1-.3 2-.5 2.2-.2.2-.4 1.3-.4 2.5 0 1.1-.2 2.2-.4 2.3-.2.1-.4 1-.4 2s-.2 1.8-.4 1.8-.4.9-.4 2c0 1-.2 2-.4 2.2-.2.1-.4 1-.4 2s-.2 1.9-.4 2c-.2.1-.4 1.1-.4 2.2s-.2 2-.4 2-.4.9-.4 2c0 1-.2 2-.4 2.2-.2.1-.4 1.5-.4 3 0 1.6-.2 2.8-.4 2.8s-.4 1-.4 2.4c0 1.3-.2 2.4-.4 2.4s-.4 1-.4 2.4c0 1.3-.2 2.4-.4 2.4s-.4 1-.4 2.2c0 1.2-.2 2.3-.4 2.4-.2.1-.4 1.2-.4 2.3 0 1.2-.2 2.3-.4 2.5-.3.4-.6 2.9-1 8.8-.2 1.8-.4 3.4-.6 3.6-.2.2-.4 1.7-.4 3.3 0 1.7-.2 2.9-.4 2.9s-.4 1.2-.4 2.7c0 1.5-.2 3-.4 3.1a10 10 0 00-.6 3.2c0 1.5-.4 4.4-.6 6.4a462.2 462.2 0 00-2.8 36.9c0 3-.2 4.9-.4 4.9-.3 0-.4 2.9-.4 7.8 0 5-.1 7.8-.4 7.8-.3 0-.4 5.5-.4 15.6s.1 15.6.4 15.6c.2 0 .4 2.2.4 5.8 0 3.2.2 5.8.3 5.8.2 0 .5 2 .6 4.4a46 46 0 001.5 10.3c.3 1.6.7 3 .9 3.1a16.5 16.5 0 003.2 6.6c.2 0 .3.2.3.5s.6.7 1.3 1l2 1c1 .4 1.9.4 1.9-.1 0-.2.4-.4 1-.4s1-.2 1-.4.2-.4.5-.4c.6 0 3.1-2.4 3.1-3 0 0 .5-.8 1.2-1.5s1.2-1.4 1.2-1.7c0-.3.1-.6.3-.7.4-.2 2.1-3.5 2.1-4.1a23 23 0 003.2-6.5c0-.3.2-.5.4-.5s.4-.5.4-1c0-.6.2-1 .4-1s.4-.3.4-.8c0-.4.2-.9.4-1 .2-.1.4-.7.4-1.2 0-.6.2-1 .4-1s.4-.3.4-.8c0-.4.2-.9.4-1 .2-.1.4-.7.4-1.2 0-.6.2-1 .4-1s.4-.5.4-1.2.2-1.2.4-1.2.4-.5.4-1.2c0-.6.2-1.3.4-1.4.2-.1.4-.6.4-1 0-.5.2-1.1.4-1.5.7-1.3 2.4-7 2.4-8 0-.7.2-1.4.4-1.5.2-.1.4-1 .4-1.8 0-.9.2-1.6.4-1.6s.4-.5.4-1.2.2-1.2.4-1.2.4-.6.4-1.4c0-.8.2-1.4.4-1.4s.4-.5.4-1.2c0-.6.2-1.3.4-1.4.2-.1.4-.9.4-1.6 0-.8.2-1.4.4-1.4s.4-.6.4-1.4c0-.7.2-1.5.4-1.6.2-.1.4-1.1.4-2.2s.2-2 .4-2 .4-.6.4-1.4c0-.7.2-1.5.4-1.6.2-.1.4-.9.4-1.6 0-.8.2-1.4.4-1.4s.4-.7.4-1.6c0-.9.2-1.6.4-1.6s.4-.7.4-1.6c0-.8.2-1.7.4-1.8.3-.2.7-2 1-5.7.2-1.2.4-2.1.6-2.1.2 0 .4-.8.4-1.8s.2-1.8.4-1.8.4-.9.4-2 .2-2 .4-2 .4-.8.5-1.7l.7-3.7c1-5.4 2-11 2.5-15.2.2-2 .5-4 .7-4.3.2-.4.4-1.5.4-2.5s.2-1.8.4-1.8.4-1 .4-2.2c0-1.2.2-2.2.4-2.2s.4-1 .4-2.4c0-1.3.2-2.5.4-2.6.2-.1.4-1.6.4-3.2s.2-3 .4-3.2c.2-.1.4-1.3.4-2.6s.2-2.4.4-2.4.4-1.2.4-2.8c0-1.6.2-2.8.4-2.8s.4-1.1.4-2.6.2-2.6.4-2.6.4-1.2.4-2.8c0-1.5.2-2.8.4-2.8.4 0 .7-3.2 1-10.5.2-2.4.4-4.3.6-4.3.2 0 .4-1.4.4-3.2 0-1.7.2-3.3.4-3.4.2-.1.4-1.8.4-3.8 0-2 .2-3.7.4-3.8.2-.1.4-2 .4-4s.2-3.8.4-4c.2-.2.4-2.3.6-4.6 0-2.3.4-6.8.6-10 1.6-22.6 1.4-67.5-.4-71.4-.2-.4-.5-1.7-.6-2.7-.5-4.4-.7-5.5-1-5.5-.2 0-.4-.5-.4-1.2 0-.6-.2-1.3-.4-1.4-.2-.1-.4-.7-.4-1.2s-.2-1-.4-1.2c-.2-.1-.4-.7-.4-1.2 0-.6-.2-1-.4-1s-.4-.3-.4-.6-.2-.6-.4-.6-.4-.3-.4-.7c0-1.5-2-2.5-5.2-2.5h-3l-2.2 2.4M85.7 77.6A31.7 31.7 0 0076 89.2c-.8 1.7-1.5 3-1.7 3.1-.2.1-.3.5-.3 1 0 .4-.2.7-.4.7s-.4.4-.4.8-.2.8-.4.8-.4.4-.4.8-.2.8-.4.8-.4.4-.4 1c0 .5-.2 1-.4 1.2-.2.1-.4.6-.4 1 0 .5-.2.8-.4.8s-.4.4-.4.8-.2.8-.4.8-.4.5-.4 1.2-.2 1.2-.4 1.2-.4.4-.4.8-.2.8-.4.8-.4.5-.4 1.2-.2 1.2-.4 1.2-.4.5-.4 1.2-.2 1.2-.4 1.2-.4.4-.4 1c0 .5-.2 1-.4 1.2-.2.1-.4.7-.4 1.2s-.2 1-.4 1.2c-.2.1-.4.7-.4 1.2s-.2 1-.4 1.2c-.2.1-.4.8-.4 1.4 0 .6-.2 1.3-.4 1.4-.2.1-.4.8-.4 1.4 0 .6-.2 1.3-.4 1.4-.2.1-.4.9-.4 1.6 0 .8-.2 1.4-.4 1.4s-.4.6-.4 1.4c0 .7-.2 1.5-.4 1.6-.2.1-.4.7-.4 1.2 0 .6-.2 1.3-.4 1.7-.5 1-1.6 6.2-1.6 7.7 0 .6-.2 1.2-.4 1.2s-.4 1-.4 2.2c0 1.2-.2 2.2-.4 2.2s-.4.7-.4 1.6c0 .8-.2 1.7-.4 1.8-.2.1-.4 1-.4 2s-.2 1.8-.4 1.8-.4.9-.4 2-.2 2-.4 2-.4.8-.4 1.8-.2 1.9-.4 2c-.2.1-.4 1.1-.4 2.2 0 1-.2 2-.4 2.2-.2.1-.4 1.5-.4 3 0 1.6-.2 2.8-.4 2.8s-.4 1.1-.4 2.6c0 1.4-.2 2.7-.4 2.8-.2.1-.4 1.2-.4 2.4s-.2 2.3-.4 2.4c-.2.1-.4 1.6-.4 3.2 0 1.7-.2 3-.4 3s-.4 1.3-.4 3c0 1.6-.2 3-.4 3.2-.2.1-.4 1.8-.4 3.6s-.2 3.5-.4 3.6a25 25 0 00-.4 6.4 205.5 205.5 0 001.2 61.4c.2 0 .4.8.4 1.8s.2 1.8.4 1.8.4.5.4 1.2c0 .6.2 1.3.4 1.4.2.1.4.9.4 1.6 0 .8.2 1.4.4 1.4s.4.3.4.8c0 .4.2.9.4 1 .2.1.4.7.4 1.2 0 .6.2 1 .4 1s.4.4.4.8.1.8.3.8c.2 0 .6.5 1 1.1 1 2.2 4.4 4.5 6.4 4.5 1 0 3.9-1 3.9-1.3 0-.2.3-.3.6-.3a24.7 24.7 0 007.4-8.3c0-.3.1-.5.3-.5.4 0 1.7-2.6 1.7-3.4 0-.3.2-.6.4-.6s.4-.3.4-.6.2-.6.4-.6.4-.4.4-.8.2-.8.4-.8.4-.4.4-.8.2-.8.4-.8.4-.4.4-.8.2-.8.4-.8.4-.4.4-.8.2-.8.4-.8.4-.3.4-.6.2-1 .5-1.5c1-2 1.1-2.3 1.1-3.3 0-.5.2-1 .4-1s.4-.4.4-.8.2-.8.4-.8.4-.4.4-1c0-.5.2-1 .4-1.2.2-.1.4-.7.4-1.2 0-.6.2-1 .4-1s.4-.4.4-1c0-.5.2-1 .4-1.2.2-.1.4-.7.4-1.2s.2-1 .4-1.2c.2-.1.4-.8.4-1.4 0-.6.2-1.3.4-1.4.2-.1.4-.8.4-1.4 0-.6.2-1.3.4-1.4.2-.1.4-.8.4-1.4 0-.7.2-1.2.4-1.2s.4-.5.4-1a50.8 50.8 0 002.7-11.5c.1-1.2.4-2.3.6-2.3.1 0 .3-.7.3-1.6 0-.9.2-1.6.4-1.6s.4-.6.4-1.4c0-.7.2-1.5.4-1.6.2-.1.4-1 .4-1.8 0-.9.2-1.6.4-1.6s.4-.8.4-1.8.2-1.9.4-2c.2-.1.4-1.4.4-2.8 0-1.5.2-2.6.4-2.6s.4-.8.4-1.8.2-1.8.4-1.8.4-.9.4-2 .2-2 .4-2 .4-1 .4-2.4c0-1.3.2-2.4.4-2.4s.4-1 .4-2.2c0-1.2.2-2.3.4-2.4.2-.1.4-1.3.4-2.6s.2-2.5.4-2.6c.2-.1.4-1.9.4-3.8 0-2.1.2-3.6.4-3.6s.4-1.3.4-3c0-1.6.2-3 .4-3.2.2-.1.4-1.8.4-3.6 0-2 .2-3.4.4-3.4s.4-1.7.4-4.4a359.5 359.5 0 000-58.5c0-1.5-.2-2.7-.4-2.7s-.4-.9-.4-2c0-1-.2-2-.4-2.2-.2-.1-.4-1-.4-1.8 0-.9-.2-1.6-.4-1.6s-.4-.8-.4-1.8-.2-1.9-.4-2c-.2-.1-.4-.7-.4-1.2s-.2-1-.4-1.2c-.2-.1-.4-.6-.4-1 0-.5-.2-.8-.4-.8s-.4-.4-.4-.8-.2-.8-.4-.8-.4-.4-.4-.8-.2-.8-.3-.8c-.2 0-.6-.5-1-1.1-.6-1.3-2.3-2.9-3-2.9-.3 0-.5-.2-.5-.4 0-.7-5.3-.4-6.7.4m241 33.3l-1.4 1c-.3.3-.7.5-1 .5-.5 0-3.5 3.2-3.5 3.8 0 .2-.4.7-.8 1-.4.3-.8.9-.8 1.2 0 .3-.4.9-.8 1.2-.4.3-.8.9-.8 1.2 0 .3-.4.9-.8 1.2-.4.3-.8.9-.8 1.3s-.2.7-.4.7-.4.4-.4.8-.2.8-.4.8-.4.4-.4.8-.1.8-.3.8c-.2 0-.6.6-.9 1.3l-1.3 3.1-1.1 2.5c-.2.4-.4 1-.4 1.5 0 .4-.1.8-.3.8-.3 0-1.7 4.2-1.7 5.1 0 .3-.2.5-.4.5s-.4.4-.4 1c0 .5-.2 1-.4 1.2-.2.1-.4.7-.4 1.2s-.2 1-.4 1.2c-.2.1-.4.9-.4 1.6 0 .8-.2 1.4-.4 1.4s-.4.5-.4 1.2-.2 1.2-.4 1.2-.4.5-.4 1.2-.2 1.2-.4 1.2-.4.5-.4 1.2-.2 1.2-.4 1.2-.4.5-.4 1.2c0 .6-.2 1.3-.4 1.4-.2.1-.4.8-.4 1.4 0 .6-.2 1.3-.4 1.4-.2.1-.4 1-.4 2s-.2 1.8-.4 1.8-.4.6-.4 1.4c0 .7-.2 1.5-.4 1.6-.2.1-.4.8-.4 1.4 0 .6-.2 1.3-.4 1.4-.2.1-.4.9-.4 1.6 0 .7-.2 1.5-.4 1.6-.2.1-.4 1-.4 1.8 0 .9-.2 1.7-.4 1.8-.3.2-.7 2-1 5.7-.2 1.2-.4 2.1-.6 2.1-.2 0-.4.9-.4 2s-.2 2-.4 2-.4.8-.4 1.7c0 1-.2 2-.4 2.1-.2.2-.4 1.3-.5 2.4l-.6 4.2a149.8 149.8 0 00-1.7 12.2c-.2 1.4-.4 3.5-.4 4.7 0 1.3-.2 2.3-.4 2.3s-.4 1.3-.4 3.2c0 1.9-.2 3.2-.4 3.2s-.4 1.4-.4 3.4-.2 3.4-.4 3.4-.4 1.7-.4 4.4a385.3 385.3 0 00-1.2 46.5c.2.3.4 2.4.4 4.8 0 2.6.2 4.3.4 4.3s.4 1.3.4 3c0 1.6.2 3 .4 3.2.2.1.4 1.1.4 2.2s.2 2 .4 2 .4.7.4 1.6c0 .9.2 1.6.4 1.6s.4.6.4 1.4c0 .7.2 1.5.4 1.6.2.1.4.8.4 1.5s.3 1.8.6 2.4l.6 1.7c0 .4.2.6.4.6s.4.4.4.8.2.8.4.8.4.3.4.6c0 2.1 6.1 5.6 8.2 4.7.6-.3 1.4-.5 1.8-.5.4 0 .8-.1.8-.3 0-.2.6-.7 1.3-1 1.5-1 4.3-3.8 4.3-4.5 0-.2.4-.7.8-1 .4-.3.8-.9.8-1.2 0-.3.4-.9.8-1.2.4-.3.8-.9.8-1.3s.2-.7.3-.7c.2 0 .8-.9 1.3-1.9.6-1 1.1-2 1.3-2 .2-.1.3-.5.3-1 0-.4.2-.7.4-.7s.4-.4.4-.8.2-.8.4-.8.4-.3.4-.8c0-.4.2-.9.4-1 .2-.1.4-.6.4-1 0-.5.2-.8.4-.8s.4-.4.4-1c0-.5.2-1 .4-1.2.2-.1.4-.6.4-1 0-.5.1-.8.3-.8.2 0 .6-.9.9-1.9l.8-2.5a16 16 0 001.6-5.2c0-.7.2-1.2.4-1.2s.4-.5.4-1.2.2-1.2.4-1.2.4-.5.4-1.2.2-1.2.4-1.2.4-.5.4-1.2.2-1.2.4-1.2.4-.5.4-1.2c0-.6.2-1.3.4-1.4.2-.1.4-.9.4-1.6 0-.8.2-1.4.4-1.4s.4-.6.4-1.4c0-.7.2-1.5.4-1.6.2-.1.4-.9.4-1.6 0-.8.2-1.4.4-1.4s.4-.7.4-1.6c0-.9.2-1.6.4-1.6s.4-.7.4-1.6c0-.9.2-1.6.4-1.6s.4-.7.4-1.6c0-.9.2-1.6.4-1.6s.4-.7.4-1.6c0-.8.2-1.7.4-1.8.2-.1.4-1.1.4-2.2s.2-2 .4-2 .4-.9.4-2 .2-2 .4-2 .4-.9.4-2 .2-2 .4-2 .4-.8.4-1.8.2-1.9.4-2c.2-.1.4-1 .4-2 0-.9.2-1.8.4-2 .3-.4.5-1.5 1-8 .2-1.5.4-3 .6-3.2.2-.2.4-1.4.4-2.6 0-1.2.2-2.4.4-2.6.2-.2.5-3 .6-6.1.2-3.1.5-5.7.7-5.7.1 0 .3-1.5.3-3.4 0-1.8.2-3.5.4-3.6.2-.1.4-2.1.4-4.6a298.6 298.6 0 00.8-29c0-15.7-.1-24.2-.4-24.4-.2-.1-.4-1.5-.4-3 0-1.6-.2-2.8-.4-2.8s-.4-1-.4-2.4c0-1.3-.2-2.4-.3-2.4-.2 0-.5-1.3-.7-2.8a8.2 8.2 0 00-.6-3c-.2-.1-.4-.8-.4-1.4 0-.7-.2-1.2-.4-1.2s-.4-.5-.4-1c0-.6-.2-1.3-.3-1.7a17 17 0 00-4.4-6.4l-2.2-2.1h-2.6c-1.5 0-3 .3-3.5.5" fill="#f48c34" fill-rule="evenodd"/></svg>